<?xml version="1.0" encoding="utf-8"?>
<svg viewBox="2.7704 -0.9479 111.1612 112.3888" width="83.371pt" height="84.292pt" xmlns="http://www.w3.org/2000/svg" xmlns:xlink="http://www.w3.org/1999/xlink">
  <defs>
    <linearGradient id="linearGradient1478" gradientUnits="userSpaceOnUse" gradientTransform="matrix(0.562541, 0, 0, 0.567972, -12.220474, -12.650226)" x1="26.648937" y1="20.603781" x2="135.66525" y2="114.39767" xlink:href="#linearGradient4689"/>
    <linearGradient id="linearGradient4689">
      <stop style="stop-color:#5a9fd4;stop-opacity:1;" offset="0" id="stop4691"/>
      <stop style="stop-color:#306998;stop-opacity:1;" offset="1" id="stop4693"/>
    </linearGradient>
    <linearGradient id="linearGradient1475" gradientUnits="userSpaceOnUse" gradientTransform="matrix(0.562541, 0, 0, 0.567972, -12.220474, -12.650226)" x1="150.96111" y1="192.35176" x2="112.03144" y2="137.27299" xlink:href="#linearGradient4671"/>
    <linearGradient id="linearGradient4671">
      <stop style="stop-color:#ffd43b;stop-opacity:1;" offset="0" id="stop4673"/>
      <stop style="stop-color:#ffe873;stop-opacity:1" offset="1" id="stop4675"/>
    </linearGradient>
  </defs>
  <path style="fill:url(#linearGradient1478);fill-opacity:1" d="M 57.689 -0.947 C 53.105 -0.926 48.728 -0.535 44.876 0.147 C 33.53 2.151 31.47 6.347 31.47 14.084 L 31.47 24.303 L 58.283 24.303 L 58.283 27.709 L 31.47 27.709 L 21.408 27.709 C 13.615 27.709 6.792 32.393 4.658 41.303 C 2.196 51.516 2.087 57.889 4.658 68.553 C 6.564 76.491 11.115 82.147 18.908 82.147 L 28.126 82.147 L 28.126 69.897 C 28.126 61.047 35.784 53.241 44.876 53.241 L 71.658 53.241 C 79.113 53.241 85.064 47.102 85.064 39.616 L 85.064 14.084 C 85.064 6.818 78.934 1.36 71.658 0.147 C 67.052 -0.62 62.273 -0.968 57.689 -0.947 Z M 43.189 7.272 C 45.959 7.272 48.22 9.57 48.22 12.397 C 48.22 15.213 45.959 17.491 43.189 17.491 C 40.41 17.491 38.158 15.213 38.158 12.397 C 38.158 9.57 40.41 7.272 43.189 7.272 Z" id="path1948"/>
  <path style="fill:url(#linearGradient1475);fill-opacity:1" d="M 88.408 27.709 L 88.408 39.616 C 88.408 48.846 80.582 56.616 71.658 56.616 L 44.876 56.616 C 37.541 56.616 31.47 62.894 31.47 70.241 L 31.47 95.772 C 31.47 103.038 37.789 107.312 44.876 109.397 C 53.364 111.892 61.503 112.343 71.658 109.397 C 78.408 107.442 85.064 103.509 85.064 95.772 L 85.064 85.553 L 58.283 85.553 L 58.283 82.147 L 85.064 82.147 L 98.47 82.147 C 106.263 82.147 109.166 76.711 111.876 68.553 C 114.676 60.154 114.557 52.077 111.876 41.303 C 109.951 33.546 106.273 27.709 98.47 27.709 L 88.408 27.709 Z M 73.345 92.366 C 76.125 92.366 78.376 94.643 78.376 97.459 C 78.376 100.286 76.125 102.584 73.345 102.584 C 70.576 102.584 68.314 100.286 68.314 97.459 C 68.314 94.643 70.576 92.366 73.345 92.366 Z" id="path1950"/>
  <path d="M 11.06 49.06 L 11.06 34.32 L 13.01 34.32 L 13.01 47.32 L 20.27 47.32 L 20.27 49.06 Z M 22.37 36.4 L 22.37 34.32 L 24.18 34.32 L 24.18 36.4 Z M 22.37 49.06 L 22.37 38.38 L 24.18 38.38 L 24.18 49.06 Z M 29.9 49.06 L 25.84 38.38 L 27.75 38.38 L 30.04 44.78 Q 30.41 45.81 30.72 46.93 Q 30.96 46.08 31.4 44.9 L 33.77 38.38 L 35.63 38.38 L 31.59 49.06 Z M 44.55 45.62 L 46.42 45.85 Q 45.97 47.49 44.78 48.4 Q 43.58 49.3 41.72 49.3 Q 39.38 49.3 38 47.86 Q 36.63 46.42 36.63 43.81 Q 36.63 41.11 38.02 39.63 Q 39.41 38.14 41.62 38.14 Q 43.76 38.14 45.12 39.6 Q 46.48 41.05 46.48 43.7 Q 46.48 43.86 46.47 44.18 L 38.5 44.18 Q 38.6 45.94 39.5 46.88 Q 40.39 47.81 41.73 47.81 Q 42.73 47.81 43.43 47.29 Q 44.13 46.77 44.55 45.62 Z M 38.6 42.69 L 44.57 42.69 Q 44.45 41.35 43.88 40.67 Q 43.02 39.63 41.64 39.63 Q 40.39 39.63 39.54 40.46 Q 38.69 41.3 38.6 42.69 Z" style="fill: rgb(255, 229, 107);"/>
  <path d="M 37.43 76.35 L 37.43 61.68 L 42.93 61.68 Q 44.62 61.68 45.63 62.12 Q 46.65 62.57 47.22 63.49 Q 47.8 64.42 47.8 65.43 Q 47.8 66.37 47.29 67.2 Q 46.78 68.03 45.75 68.54 Q 47.08 68.93 47.79 69.88 Q 48.51 70.82 48.51 72.1 Q 48.51 73.13 48.07 74.01 Q 47.64 74.9 47 75.38 Q 46.36 75.86 45.39 76.11 Q 44.43 76.35 43.02 76.35 Z M 39.37 67.84 L 42.54 67.84 Q 43.83 67.84 44.4 67.67 Q 45.14 67.45 45.51 66.94 Q 45.89 66.43 45.89 65.66 Q 45.89 64.93 45.54 64.38 Q 45.19 63.82 44.54 63.61 Q 43.88 63.41 42.3 63.41 L 39.37 63.41 Z M 39.37 74.62 L 43.02 74.62 Q 43.96 74.62 44.35 74.55 Q 45.02 74.43 45.47 74.15 Q 45.92 73.87 46.21 73.33 Q 46.5 72.8 46.5 72.1 Q 46.5 71.28 46.08 70.67 Q 45.66 70.07 44.91 69.82 Q 44.17 69.58 42.76 69.58 L 39.37 69.58 Z M 50.93 76.35 L 50.93 65.72 L 52.55 65.72 L 52.55 67.33 Q 53.17 66.2 53.69 65.84 Q 54.22 65.48 54.85 65.48 Q 55.76 65.48 56.7 66.06 L 56.08 67.73 Q 55.42 67.34 54.76 67.34 Q 54.17 67.34 53.7 67.7 Q 53.23 68.05 53.03 68.68 Q 52.73 69.65 52.73 70.79 L 52.73 76.35 Z M 57.69 80.45 L 57.49 78.75 Q 58.08 78.91 58.52 78.91 Q 59.12 78.91 59.48 78.71 Q 59.84 78.51 60.07 78.15 Q 60.24 77.88 60.62 76.81 Q 60.67 76.66 60.78 76.37 L 56.75 65.72 L 58.69 65.72 L 60.9 71.88 Q 61.33 73.05 61.67 74.34 Q 61.98 73.1 62.41 71.92 L 64.69 65.72 L 66.49 65.72 L 62.44 76.53 Q 61.79 78.28 61.43 78.94 Q 60.95 79.84 60.33 80.25 Q 59.71 80.67 58.85 80.67 Q 58.33 80.67 57.69 80.45 Z M 71.95 74.74 L 72.21 76.33 Q 71.45 76.49 70.85 76.49 Q 69.87 76.49 69.33 76.18 Q 68.79 75.87 68.57 75.37 Q 68.35 74.86 68.35 73.24 L 68.35 67.12 L 67.03 67.12 L 67.03 65.72 L 68.35 65.72 L 68.35 63.09 L 70.14 62.01 L 70.14 65.72 L 71.95 65.72 L 71.95 67.12 L 70.14 67.12 L 70.14 73.34 Q 70.14 74.11 70.24 74.33 Q 70.33 74.55 70.55 74.68 Q 70.76 74.81 71.16 74.81 Q 71.46 74.81 71.95 74.74 Z M 73.71 76.35 L 73.71 61.68 L 75.51 61.68 L 75.51 66.94 Q 76.77 65.48 78.69 65.48 Q 79.87 65.48 80.74 65.95 Q 81.61 66.41 81.99 67.23 Q 82.37 68.05 82.37 69.62 L 82.37 76.35 L 80.56 76.35 L 80.56 69.62 Q 80.56 68.26 79.98 67.65 Q 79.39 67.03 78.32 67.03 Q 77.52 67.03 76.82 67.45 Q 76.11 67.86 75.81 68.57 Q 75.51 69.29 75.51 70.54 L 75.51 76.35 Z M 84.43 71.04 Q 84.43 68.08 86.07 66.66 Q 87.45 65.48 89.42 65.48 Q 91.61 65.48 93 66.92 Q 94.39 68.35 94.39 70.89 Q 94.39 72.94 93.78 74.11 Q 93.16 75.29 91.99 75.94 Q 90.81 76.59 89.42 76.59 Q 87.19 76.59 85.81 75.16 Q 84.43 73.73 84.43 71.04 Z M 86.28 71.04 Q 86.28 73.08 87.18 74.09 Q 88.07 75.11 89.42 75.11 Q 90.76 75.11 91.65 74.09 Q 92.54 73.07 92.54 70.98 Q 92.54 69 91.64 67.99 Q 90.75 66.97 89.42 66.97 Q 88.07 66.97 87.18 67.98 Q 86.28 68.99 86.28 71.04 Z M 96.5 76.35 L 96.5 65.72 L 98.12 65.72 L 98.12 67.23 Q 99.29 65.48 101.5 65.48 Q 102.47 65.48 103.27 65.83 Q 104.08 66.17 104.48 66.73 Q 104.88 67.29 105.04 68.06 Q 105.14 68.56 105.14 69.82 L 105.14 76.35 L 103.34 76.35 L 103.34 69.89 Q 103.34 68.78 103.13 68.24 Q 102.92 67.69 102.38 67.37 Q 101.84 67.04 101.12 67.04 Q 99.97 67.04 99.14 67.77 Q 98.3 68.5 98.3 70.55 L 98.3 76.35 Z" style="fill: rgb(54, 113, 161);"/>
</svg>